<svg width="194" height="49" viewBox="0 0 194 49" fill="none" xmlns="http://www.w3.org/2000/svg">
<rect x="7.888" y="6.49597" width="42.688" height="41.76" rx="20.88" fill="#F7931A"/>
<ellipse cx="29.232" cy="8.584" rx="12.992" ry="8.584" fill="#F7931A"/>
<rect y="14.848" width="6.496" height="19.488" rx="3.248" fill="#F7931A"/>
<rect x="21.344" y="41.76" width="4.64" height="15.312" rx="2.32" transform="rotate(-90 21.344 41.76)" fill="white"/>
<rect x="13.456" y="13.4559" width="13.456" height="19.024" rx="6.728" fill="white"/>
<rect x="32.48" y="13.4559" width="13.92" height="19.024" rx="6.96" fill="white"/>
<rect x="51.968" y="14.848" width="6.032" height="19.488" rx="3.016" fill="#F7931A"/>
<path d="M24.592 27.1439C24.592 29.0659 23.1378 30.6239 21.344 30.6239C19.5502 30.6239 18.096 29.0659 18.096 27.1439C18.096 25.222 19.5502 23.6639 21.344 23.6639C23.1378 23.6639 24.592 25.222 24.592 27.1439ZM22.7368 26.6482C22.8015 26.1851 22.4724 25.9362 22.0224 25.7701L22.1684 25.1429L21.812 25.0477L21.6698 25.6585C21.5761 25.6334 21.4799 25.6098 21.3843 25.5865L21.5274 24.9717L21.1712 24.8766L21.0252 25.5036C20.9476 25.4847 20.8715 25.466 20.7976 25.4463L20.798 25.4443L20.3065 25.3129L20.2116 25.7207C20.2116 25.7207 20.4761 25.7856 20.4705 25.7896C20.6149 25.8282 20.6409 25.9305 20.6366 26.0117L20.4703 26.7263C20.4802 26.729 20.4931 26.7329 20.5073 26.739C20.4955 26.7358 20.4828 26.7323 20.4697 26.729L20.2366 27.73C20.2189 27.777 20.1742 27.8475 20.0733 27.8207C20.0768 27.8263 19.8142 27.7514 19.8142 27.7514L19.6373 28.1885L20.1011 28.3124C20.1874 28.3355 20.2719 28.3598 20.3552 28.3826L20.2077 29.0171L20.5637 29.1122L20.7097 28.4845C20.8041 28.5119 20.8988 28.5382 20.9938 28.5635L20.8482 29.1882L21.2046 29.2834L21.3521 28.6501C21.9598 28.7733 22.4169 28.7236 22.6092 28.1348C22.7642 27.6606 22.6015 27.3871 22.2817 27.2088C22.5146 27.1513 22.69 26.9872 22.7368 26.6482ZM21.9225 27.8715C21.8123 28.3456 21.0672 28.0893 20.8256 28.0251L21.0213 27.1845C21.2629 27.2491 22.0376 27.377 21.9225 27.8715ZM22.0327 26.6413C21.9322 27.0726 21.312 26.8535 21.1108 26.7998L21.2882 26.0375C21.4894 26.0912 22.1374 26.1914 22.0327 26.6413Z" fill="#F7931A"/>
<path d="M44.08 27.1439C44.08 29.0659 42.6258 30.6239 40.832 30.6239C39.0382 30.6239 37.584 29.0659 37.584 27.1439C37.584 25.222 39.0382 23.6639 40.832 23.6639C42.6258 23.6639 44.08 25.222 44.08 27.1439ZM42.2248 26.6482C42.2895 26.1851 41.9604 25.9362 41.5104 25.7701L41.6564 25.1429L41.3 25.0477L41.1579 25.6585C41.0642 25.6334 40.9679 25.6098 40.8723 25.5865L41.0155 24.9717L40.6593 24.8766L40.5132 25.5036C40.4356 25.4847 40.3595 25.466 40.2856 25.4463L40.286 25.4443L39.7945 25.3129L39.6997 25.7207C39.6997 25.7207 39.9641 25.7856 39.9585 25.7896C40.1029 25.8282 40.129 25.9305 40.1246 26.0117L39.9583 26.7263C39.9683 26.729 39.9812 26.7329 39.9954 26.739C39.9835 26.7358 39.9708 26.7323 39.9577 26.729L39.7246 27.73C39.707 27.777 39.6622 27.8475 39.5613 27.8207C39.5649 27.8263 39.3023 27.7514 39.3023 27.7514L39.1253 28.1885L39.5891 28.3124C39.6754 28.3355 39.76 28.3598 39.8432 28.3826L39.6957 29.0171L40.0517 29.1122L40.1978 28.4845C40.2922 28.5119 40.3869 28.5382 40.4818 28.5635L40.3362 29.1882L40.6926 29.2834L40.8401 28.6501C41.4479 28.7733 41.9049 28.7236 42.0972 28.1348C42.2523 27.6606 42.0895 27.3871 41.7698 27.2088C42.0026 27.1513 42.178 26.9872 42.2248 26.6482ZM41.4105 27.8715C41.3004 28.3456 40.5552 28.0893 40.3136 28.0251L40.5093 27.1845C40.7509 27.2491 41.5256 27.377 41.4105 27.8715ZM41.5208 26.6413C41.4203 27.0726 40.8 26.8535 40.5988 26.7998L40.7763 26.0375C40.9775 26.0912 41.6254 26.1914 41.5208 26.6413Z" fill="#F7931A"/>
<path d="M73.041 31.2559C73.9785 31.2559 74.7402 30.998 75.3262 30.4824C75.9121 29.9668 76.2168 29.2812 76.2402 28.4258H81.0039C80.9922 29.7148 80.6406 30.8984 79.9492 31.9766C79.2578 33.043 78.3086 33.875 77.1016 34.4727C75.9062 35.0586 74.582 35.3516 73.1289 35.3516C70.4102 35.3516 68.2656 34.4902 66.6953 32.7676C65.125 31.0332 64.3398 28.6426 64.3398 25.5957V25.2617C64.3398 22.332 65.1191 19.9941 66.6777 18.248C68.2363 16.502 70.375 15.6289 73.0938 15.6289C75.4727 15.6289 77.377 16.3086 78.8066 17.668C80.248 19.0156 80.9805 20.8145 81.0039 23.0645H76.2402C76.2168 22.0801 75.9121 21.2832 75.3262 20.6738C74.7402 20.0527 73.9668 19.7422 73.0059 19.7422C71.8223 19.7422 70.9258 20.1758 70.3164 21.043C69.7188 21.8984 69.4199 23.293 69.4199 25.2266V25.7539C69.4199 27.7109 69.7188 29.1172 70.3164 29.9727C70.9141 30.8281 71.8223 31.2559 73.041 31.2559ZM83.1133 25.3145C83.1133 23.4277 83.4766 21.7461 84.2031 20.2695C84.9297 18.793 85.9727 17.6504 87.332 16.8418C88.7031 16.0332 90.291 15.6289 92.0957 15.6289C94.6621 15.6289 96.7539 16.4141 98.3711 17.9844C100 19.5547 100.908 21.6875 101.096 24.3828L101.131 25.6836C101.131 28.6016 100.316 30.9453 98.6875 32.7148C97.0586 34.4727 94.873 35.3516 92.1309 35.3516C89.3887 35.3516 87.1973 34.4727 85.5566 32.7148C83.9277 30.957 83.1133 28.5664 83.1133 25.543V25.3145ZM88.1934 25.6836C88.1934 27.4883 88.5332 28.8711 89.2129 29.832C89.8926 30.7812 90.8652 31.2559 92.1309 31.2559C93.3613 31.2559 94.3223 30.7871 95.0137 29.8496C95.7051 28.9004 96.0508 27.3887 96.0508 25.3145C96.0508 23.5449 95.7051 22.1738 95.0137 21.2012C94.3223 20.2285 93.3496 19.7422 92.0957 19.7422C90.8535 19.7422 89.8926 20.2285 89.2129 21.2012C88.5332 22.1621 88.1934 23.6562 88.1934 25.6836ZM109.621 35H104.523V15.9805H109.621V35ZM104.225 11.0586C104.225 10.2969 104.477 9.66992 104.98 9.17773C105.496 8.68555 106.193 8.43945 107.072 8.43945C107.939 8.43945 108.631 8.68555 109.146 9.17773C109.662 9.66992 109.92 10.2969 109.92 11.0586C109.92 11.832 109.656 12.4648 109.129 12.957C108.613 13.4492 107.928 13.6953 107.072 13.6953C106.217 13.6953 105.525 13.4492 104.998 12.957C104.482 12.4648 104.225 11.832 104.225 11.0586ZM118.498 15.9805L118.656 18.1777C120.016 16.4785 121.838 15.6289 124.123 15.6289C126.139 15.6289 127.639 16.2207 128.623 17.4043C129.607 18.5879 130.111 20.3574 130.135 22.7129V35H125.055V22.8359C125.055 21.7578 124.82 20.9785 124.352 20.498C123.883 20.0059 123.104 19.7598 122.014 19.7598C120.584 19.7598 119.512 20.3691 118.797 21.5879V35H113.717V15.9805H118.498ZM160.105 25.666C160.105 28.7129 159.455 31.0918 158.154 32.8027C156.854 34.502 155.037 35.3516 152.705 35.3516C150.643 35.3516 148.996 34.5605 147.766 32.9785L147.537 35H142.967V8H148.047V17.6855C149.219 16.3145 150.76 15.6289 152.67 15.6289C154.99 15.6289 156.807 16.4844 158.119 18.1953C159.443 19.8945 160.105 22.291 160.105 25.3848V25.666ZM155.025 25.2969C155.025 23.375 154.721 21.9746 154.111 21.0957C153.502 20.2051 152.594 19.7598 151.387 19.7598C149.77 19.7598 148.656 20.4219 148.047 21.7461V29.252C148.668 30.5879 149.793 31.2559 151.422 31.2559C153.062 31.2559 154.141 30.4473 154.656 28.8301C154.902 28.0566 155.025 26.8789 155.025 25.2969ZM162.461 25.3145C162.461 23.4277 162.824 21.7461 163.551 20.2695C164.277 18.793 165.32 17.6504 166.68 16.8418C168.051 16.0332 169.639 15.6289 171.443 15.6289C174.01 15.6289 176.102 16.4141 177.719 17.9844C179.348 19.5547 180.256 21.6875 180.443 24.3828L180.479 25.6836C180.479 28.6016 179.664 30.9453 178.035 32.7148C176.406 34.4727 174.221 35.3516 171.479 35.3516C168.736 35.3516 166.545 34.4727 164.904 32.7148C163.275 30.957 162.461 28.5664 162.461 25.543V25.3145ZM167.541 25.6836C167.541 27.4883 167.881 28.8711 168.561 29.832C169.24 30.7812 170.213 31.2559 171.479 31.2559C172.709 31.2559 173.67 30.7871 174.361 29.8496C175.053 28.9004 175.398 27.3887 175.398 25.3145C175.398 23.5449 175.053 22.1738 174.361 21.2012C173.67 20.2285 172.697 19.7422 171.443 19.7422C170.201 19.7422 169.24 20.2285 168.561 21.2012C167.881 22.1621 167.541 23.6562 167.541 25.6836ZM189.689 11.3047V15.9805H192.941V19.707H189.689V29.1992C189.689 29.9023 189.824 30.4062 190.094 30.7109C190.363 31.0156 190.879 31.168 191.641 31.168C192.203 31.168 192.701 31.127 193.135 31.0449V34.8945C192.139 35.1992 191.113 35.3516 190.059 35.3516C186.496 35.3516 184.68 33.5527 184.609 29.9551V19.707H181.832V15.9805H184.609V11.3047H189.689Z" fill="#FEF9F9"/>
</svg>
